<?xml version="1.0" encoding="iso-8859-1"?>
<!-- Generator: Adobe Illustrator 18.0.0, SVG Export Plug-In . SVG Version: 6.00 Build 0)  -->
<!DOCTYPE svg PUBLIC "-//W3C//DTD SVG 1.1//EN" "http://www.w3.org/Graphics/SVG/1.1/DTD/svg11.dtd">
<svg version="1.1" id="Capa_1" xmlns="http://www.w3.org/2000/svg" xmlns:xlink="http://www.w3.org/1999/xlink" x="0px" y="0px"
	 viewBox="0 0 310.043 310.043" style="enable-background:new 0 0 310.043 310.043;" xml:space="preserve">
<g>
	<g>
		<path d="M172.48,36.183l6.821-33.16L164.609,0l-8.774,42.653l-51.589,30.039l-43.144-26.02l-7.747,12.845l36.114,21.78
			l-46.6,27.04l0.371,110.169l54.307,91.537l169.627-98.854V55.391L172.48,36.183z M169.177,52.241l1.812-1.055l13.415,2.729
			l-17.706,10.379L169.177,52.241z M151.778,62.372L149.283,74.5l-21.319,12.497l-9.074-5.474L151.778,62.372z M65.583,226.808
			l-7.362-12.44l-0.393-85.359l7.755,6.538V226.808z M63.225,113.938l40.888-23.809l9.122,5.501l-42.31,24.799L63.225,113.938z
			 M92.541,272.359l-11.958-20.206V148.19l11.958,10.082V272.359z M83.09,130.685l123.336-72.291l32.495,6.608L100.829,145.64
			L83.09,130.685z M252.174,202.563l-144.633,84.155V159.091l144.633-84.458V202.563z"/>
	</g>
	<path d="M240.891,94.474l-122.168,70.854v101.45l122.168-71.327V94.474z M225.891,186.838l-92.168,53.813v-66.683l92.168-53.455
		V186.838z"/>
</g>
<g>
</g>
<g>
</g>
<g>
</g>
<g>
</g>
<g>
</g>
<g>
</g>
<g>
</g>
<g>
</g>
<g>
</g>
<g>
</g>
<g>
</g>
<g>
</g>
<g>
</g>
<g>
</g>
<g>
</g>
</svg>
