<?xml version="1.0" encoding="utf-8"?><svg version="1.1" id="Layer_1" xmlns="http://www.w3.org/2000/svg" xmlns:xlink="http://www.w3.org/1999/xlink" x="0px" y="0px" viewBox="0 0 122.88 108.27" style="enable-background:new 0 0 122.88 108.27" xml:space="preserve"><style type="text/css">.st0{fill-rule:evenodd;clip-rule:evenodd;}</style><g><path class="st0" d="M23.64,38.02l18.19-25.35C46.92,5.64,51.24-0.17,61.19,0c10.8,0.19,14.98,6.68,20.41,14.35 c4.86,6.87,9.73,13.73,14.59,20.6c7.61,10.7,17.47,17.69,5.36,30.34c7.18,4.96,12.1,12.36,14.96,21.97l6.37,21.01h-22.42V84.41 c0-2.33-1.91-4.24-4.24-4.24H26.66c-2.33,0-4.24,1.91-4.24,4.24v23.86H0c5.13-19.34,10.84-37.31,21.65-43.29 c-3.53-2.51-5.46-5.3-6.07-8.32C14.2,49.71,19.85,43.31,23.64,38.02L23.64,38.02z M59.33,69.41h4.36l-0.9,2.65 c5.11-0.35,10.03-3.84,12.65-10.59c2.77-7.14,5.77-3.5,5.5-15.68l-0.2-9.17c0.2-5.16-1.99-7.64-6.54-7.46 c-8.52,4.98-17.05,4.08-25.57,0c-3.5-0.89-5.57,1.49-6.54,6.39c0,5.71-0.88,14.88,1.64,19.9c1.31,2.61,2.8,3.38,4.39,6.69 c2.83,5.88,7.42,9.18,12.14,9.82L59.33,69.41L59.33,69.41z M59.57,56.35c-4.13,0.73-3.21,3.8-9.39-0.11h-1.08 c0.94,1.34,2.16,3.69,3.73,4.23c3.98,1.36,6.19,0.2,8.41-2.57c2.22,2.77,4.42,3.93,8.41,2.57c1.57-0.53,2.79-2.88,3.73-4.23H72.3 c-6.32,4-5.22,0.7-9.68,0.07C61.61,56.16,60.58,56.17,59.57,56.35L59.57,56.35z M59.99,47.47c-3.57-0.46-7.15-0.37-10.72,0 C53.03,44.47,58.34,42.87,59.99,47.47L59.99,47.47z M62.89,47.47c3.57-0.62,7.15-0.52,10.72,0C69.85,44.47,64.54,42.87,62.89,47.47 L62.89,47.47z M57.12,38.01c1.06,0.93,1.96,2.04,2.77,3.25c-3.13-1.91-6.28-3.45-9.54-3.59c0.53-0.7,1.12-1.16,1.77-1.4 C53.98,35.61,55.78,36.84,57.12,38.01L57.12,38.01z M65.76,38.01c-1.06,0.93-1.96,2.04-2.77,3.25c3.13-1.91,6.28-3.45,9.54-3.59 c-0.53-0.7-1.12-1.16-1.77-1.4C68.9,35.61,67.1,36.84,65.76,38.01L65.76,38.01z"/></g></svg>